<svg xmlns="http://www.w3.org/2000/svg" viewBox="0 0 688.06 191.57"><title>Recurso 5</title><g id="Capa_2" data-name="Capa 2"><g id="Hozizontal"><path d="M431,26.12V5.28h7.44a7.37,7.37,0,0,1,3.62.8,5.32,5.32,0,0,1,2.19,2.22,7,7,0,0,1,.73,3.24,7,7,0,0,1-.82,3.41,5.69,5.69,0,0,1-2.28,2.28,7,7,0,0,1-3.44.81h-3.55v8.08Zm3.89-11.52H438a2.78,2.78,0,0,0,2.17-.82,3.18,3.18,0,0,0,.75-2.24,2.78,2.78,0,0,0-.76-2A2.92,2.92,0,0,0,438,8.74h-3.16Z" style="fill:#1a1a1a"/><path d="M461.68,26.12V5.28h8.72A6.3,6.3,0,0,1,475.17,7a5.92,5.92,0,0,1,1.61,4.27,5.7,5.7,0,0,1-.94,3.28,5.59,5.59,0,0,1-2.55,2.07l4,9.54h-4.22l-3.47-8.69h-4v8.69ZM465.57,14h4.28a2.7,2.7,0,0,0,2.09-.73,3,3,0,0,0,.65-2A2.57,2.57,0,0,0,472,9.41a2.56,2.56,0,0,0-2-.67h-4.44Z" style="fill:#1a1a1a"/><path d="M501.64,26.49a8,8,0,0,1-6.35-2.65Q493,21.2,493,15.7t2.31-8.16a9,9,0,0,1,12.7,0q2.31,2.62,2.31,8.16T508,23.84A8,8,0,0,1,501.64,26.49Zm0-3.35a3.91,3.91,0,0,0,3.5-1.77,9.07,9.07,0,0,0,1.15-4.91V14.94A9.05,9.05,0,0,0,505.14,10a4.31,4.31,0,0,0-7,0A8.87,8.87,0,0,0,497,14.94v1.52a8.89,8.89,0,0,0,1.17,4.91A3.9,3.9,0,0,0,501.64,23.14Z" style="fill:#1a1a1a"/><path d="M534.52,26.49a7.19,7.19,0,0,1-5.94-2.62q-2.12-2.61-2.11-8.17t2.31-8.16a8.23,8.23,0,0,1,6.53-2.63,8.83,8.83,0,0,1,3.92.88,7.12,7.12,0,0,1,2.93,2.59,7.5,7.5,0,0,1,1.11,4.19h-4a4.14,4.14,0,0,0-1.2-3.22,4.16,4.16,0,0,0-2.9-1.1A4,4,0,0,0,531.62,10a9.06,9.06,0,0,0-1.14,4.91v1.52a8.94,8.94,0,0,0,1.15,4.94,4,4,0,0,0,3.59,1.74,3.64,3.64,0,0,0,2.93-1.36,5.54,5.54,0,0,0,1.14-3.65V16.67l1.64,1.46h-6.32V14.79h8.66V26.12h-2.52l-.67-2.31a6.57,6.57,0,0,1-2.46,2A7.17,7.17,0,0,1,534.52,26.49Z" style="fill:#1a1a1a"/><path d="M560.75,26.12V5.28h8.72A6.33,6.33,0,0,1,574.24,7a6,6,0,0,1,1.61,4.27,5.77,5.77,0,0,1-.94,3.28,5.57,5.57,0,0,1-2.56,2.07l4,9.54h-4.23l-3.46-8.69h-4v8.69ZM564.64,14h4.28a2.68,2.68,0,0,0,2.08-.73,2.94,2.94,0,0,0,.65-2A2.53,2.53,0,0,0,571,9.41a2.54,2.54,0,0,0-2-.67h-4.43Z" style="fill:#1a1a1a"/><path d="M591,26.12l6.72-20.84h4.53L609,26.12h-4L603.71,22H596l-1.25,4.1Zm6.08-7.57h5.56l-2.1-7c-.1-.37-.2-.77-.3-1.22s-.2-1-.3-1.61h-.13c-.12.67-.22,1.23-.31,1.67s-.19.83-.29,1.16Z" style="fill:#1a1a1a"/><path d="M624.71,26.12V5.28h5.47l2.59,11.48c.08.35.16.78.25,1.31s.19,1.05.28,1.56.18,1.13.29,1.84h.12c.1-.73.18-1.36.26-1.9s.14-1.06.22-1.58.16-.92.22-1.23L637,5.28h5.29V26.12h-3.59V12.84c0-.24,0-.55,0-.91s0-.73,0-1.11,0-.81.07-1.32h-.12l-.18.8-.18.83c-.06.27-.12.54-.19.82l-.18.83L635,26.12h-3.37l-2.95-13.4-.18-.8q-.09-.42-.18-.81t-.18-.81c-.06-.27-.12-.54-.19-.8h-.12c0,.53.07,1,.08,1.37s0,.76,0,1.12,0,.65,0,.85V26.12Z" style="fill:#1a1a1a"/><path d="M658,26.12l6.71-20.84h4.53l6.72,20.84h-4L670.66,22H663l-1.24,4.1ZM664,18.55h5.56l-2.1-7c-.1-.37-.2-.77-.3-1.22s-.21-1-.31-1.61h-.12c-.12.67-.23,1.23-.32,1.67s-.19.83-.29,1.16Z" style="fill:#1a1a1a"/><path d="M509.63,121.1A88.58,88.58,0,0,1,508,138.47a34.89,34.89,0,0,1-5.92,13.93A29.14,29.14,0,0,1,490,161.74q-7.77,3.44-20.1,3.44t-20.11-3.44a29.24,29.24,0,0,1-12.09-9.34,35.16,35.16,0,0,1-5.91-13.93,88.6,88.6,0,0,1-1.6-17.37V36.81h28.38v92.93c0,4.93.94,8.79,2.79,11.55s4.71,4.14,8.54,4.14,6.67-1.38,8.53-4.14,2.79-6.62,2.79-11.55V36.81h28.39Z" style="fill:#1a1a1a"/><path d="M523.31,79.48V75.42q0-37.56,38.53-37.56,10.81,0,18,2.74a28.9,28.9,0,0,1,11.4,7.4,26.27,26.27,0,0,1,5.92,11,53.7,53.7,0,0,1,1.69,13.76A76,76,0,0,1,598,84.94a35,35,0,0,1-3,9.62,46,46,0,0,1-5.83,8.9,131.64,131.64,0,0,1-9.21,9.88q-8.79,9-14.95,15.07t-8.37,11.38H599v22.92H522.64a66.17,66.17,0,0,1,2.78-19.92,72.71,72.71,0,0,1,6.94-15.7,75.69,75.69,0,0,1,8.78-12q4.65-5.11,8.53-8.64a165.6,165.6,0,0,0,11.83-11.9,54.44,54.44,0,0,0,6.26-8.47,18,18,0,0,0,2.36-6.61,59.73,59.73,0,0,0,.34-6.53q0-7.4-2-11.9t-8-4.49a8.45,8.45,0,0,0-6.26,2.2A13,13,0,0,0,551,64.4a30.66,30.66,0,0,0-1.19,7.5q-.17,4-.17,7.58Z" style="fill:#1a1a1a"/><path d="M688.06,101.52a247.85,247.85,0,0,1-1.18,25,61.56,61.56,0,0,1-5.24,20.19,31.72,31.72,0,0,1-11.83,13.49q-7.77,4.94-21.12,4.94-13.52,0-21.29-4.32a28.38,28.38,0,0,1-11.83-12.43q-4.05-8.12-5.15-19.93t-1.1-27a248,248,0,0,1,1.18-25,61.56,61.56,0,0,1,5.24-20.19A31.72,31.72,0,0,1,627.57,42.8q7.77-4.94,21.12-4.94t21.21,4.32a28.31,28.31,0,0,1,11.91,12.44q4.05,8.1,5.15,20T688.06,101.52Zm-50.35.18c0,8.81.11,16.11.34,21.86a75.44,75.44,0,0,0,1.52,13.76c.78,3.41,1.91,5.79,3.37,7.14a9.16,9.16,0,0,0,11.5,0c1.46-1.35,2.59-3.73,3.37-7.14a77.13,77.13,0,0,0,1.53-13.76c.22-5.75.33-13,.33-21.86s-.11-16.31-.33-22.13a77.72,77.72,0,0,0-1.53-13.85c-.78-3.4-1.91-5.78-3.37-7.14a9.19,9.19,0,0,0-11.5,0c-1.46,1.36-2.59,3.74-3.37,7.14a76,76,0,0,0-1.52,13.85Q637.71,88.3,637.71,101.7Z" style="fill:#1a1a1a"/><path d="M433.36,191.32V178.89h-3.8V177h9.69v1.9h-3.78v12.43Z" style="fill:#1a1a1a"/><path d="M450.74,191.32V177h5.83a4.31,4.31,0,0,1,3.23,1.12,4,4,0,0,1,1.09,2.89,4,4,0,0,1-.65,2.29,3.71,3.71,0,0,1-1.85,1.41l2.84,6.62h-2.32l-2.57-6.22h-3.51v6.22Zm2.09-8.11h3.59a2.2,2.2,0,0,0,1.65-.6,2.23,2.23,0,0,0,.59-1.61,2.13,2.13,0,0,0-.56-1.55,2.28,2.28,0,0,0-1.66-.56h-3.61Z" style="fill:#1a1a1a"/><path d="M471.38,191.32,476,177h2.61l4.58,14.33H480.9l-.94-3.07h-5.55l-.94,3.07Zm3.59-5h4.41l-1.8-5.87q-.06-.3-.15-.69c-.07-.27-.13-.6-.2-1h-.09c-.07.41-.13.76-.18,1s-.12.49-.17.67Z" style="fill:#1a1a1a"/><path d="M494.14,191.32V177h2.09v14.33Z" style="fill:#1a1a1a"/><path d="M508.66,191.32V177h2.09v12.39h5.93v1.94Z" style="fill:#1a1a1a"/><path d="M542.62,191.32V177h5.83a4.31,4.31,0,0,1,3.23,1.12,4.37,4.37,0,0,1,.44,5.18,3.71,3.71,0,0,1-1.85,1.41l2.84,6.62h-2.32l-2.57-6.22h-3.51v6.22Zm2.09-8.11h3.6a2.18,2.18,0,0,0,1.64-.6,2.23,2.23,0,0,0,.59-1.61,2.13,2.13,0,0,0-.56-1.55,2.27,2.27,0,0,0-1.65-.56h-3.62Z" style="fill:#1a1a1a"/><path d="M569.46,191.57a4.35,4.35,0,0,1-4.78-4.85V177h2.11v9.78a3.06,3.06,0,0,0,.71,2.18,2.6,2.6,0,0,0,2,.74,2.66,2.66,0,0,0,2-.74,3.06,3.06,0,0,0,.71-2.18V177h2.09v9.73a4.37,4.37,0,0,1-4.79,4.85Z" style="fill:#1a1a1a"/><path d="M586.74,191.32V177h1.83l5,8.65a5.39,5.39,0,0,1,.32.67l.47,1.06.07,0c0-.45,0-.8,0-1.08s0-.47,0-.59V177h1.88v14.33h-1.79l-5.08-8.73c-.08-.18-.19-.41-.32-.68s-.3-.63-.49-1.08l-.09,0c0,.41.05.75.07,1s0,.48,0,.65v8.77Z" style="fill:#1a1a1a"/><path d="M608.79,191.32V177h1.84l5,8.65a7.35,7.35,0,0,1,.32.67c.12.27.27.63.47,1.06l.06,0c0-.45,0-.8,0-1.08s0-.47,0-.59V177h1.88v14.33h-1.8l-5.07-8.73c-.09-.18-.19-.41-.33-.68s-.29-.63-.49-1.08l-.08,0q0,.62.06,1c0,.26,0,.48,0,.65v8.77Z" style="fill:#1a1a1a"/><path d="M630.79,191.32V177h2.09v14.33Z" style="fill:#1a1a1a"/><path d="M645.3,191.32V177h1.84l5,8.65a7.35,7.35,0,0,1,.32.67c.12.27.27.63.47,1.06l.06,0c0-.45,0-.8,0-1.08s0-.47,0-.59V177h1.88v14.33h-1.8L648,182.59l-.32-.68c-.14-.27-.3-.63-.5-1.08l-.08,0q0,.62.06,1c0,.26,0,.48,0,.65v8.77Z" style="fill:#1a1a1a"/><path d="M672.5,191.57a5,5,0,0,1-4.16-1.83q-1.46-1.83-1.46-5.59t1.56-5.58a5.31,5.31,0,0,1,4.29-1.83,6.16,6.16,0,0,1,2.68.57,4.41,4.41,0,0,1,1.9,1.73,5.39,5.39,0,0,1,.7,2.88h-2.15a2.94,2.94,0,0,0-3.15-3.3,3.16,3.16,0,0,0-2.69,1.27,6.23,6.23,0,0,0-.95,3.74v1.05a6.48,6.48,0,0,0,.91,3.75,3.07,3.07,0,0,0,2.66,1.26,2.94,2.94,0,0,0,2.42-1,4.56,4.56,0,0,0,.8-2.9v-1.06l.9.83h-4.45v-1.81H678v7.56h-1.36l-.41-1.59a4.15,4.15,0,0,1-1.63,1.39A4.93,4.93,0,0,1,672.5,191.57Z" style="fill:#1a1a1a"/><path d="M150.63,93.39C171.63,61.7,191.44,31.8,212.5,0c12.37,18.55,24,36,35.62,53.4,16.79,25.12,16.76,25.62-4.58,49.82l-31-46.4L142,163.36a18.48,18.48,0,0,0-2.07,3.41c-9.09,23.86-27.43,26.76-51.52,21.3l26.15-39.82c17.34-26.44,17.35-26.45-.42-52.92-2.19-3.26-4.68-6.31-8-10.82-18.41,27.78-36.18,54.6-53.94,81.42-.25.37-.44.77-.69,1.14C34.66,193,34.66,193,0,188.36L106.43,26.93C121.47,49.55,135.36,70.44,150.63,93.39Z" style="fill:#1a1a1a"/><path d="M412.51,189.66c-13.13,0-23.27.82-33.16-.42-3.79-.47-7.83-5.08-10.31-8.77-18.31-27.26-36.24-54.77-54.32-82.18-2.85-4.32-5.89-8.52-9.78-14.15-5.75,8.68-11.61,15.56-15,23.5-1.54,3.61.65,10,3.12,14,14,22.08,28.57,43.78,44.61,68.12-12.57,0-22.95.67-33.17-.37-3.45-.35-7.21-4.52-9.54-7.86-8.86-12.71-17.19-25.79-27.1-40.83-9.54,14.24-17.69,27.7-27.27,40-3.42,4.41-10,7.12-15.65,8.79-4.9,1.44-10.69-.48-15.84.43-26.76,4.73-44.22-5.66-52.29-34.19l17.06-26,32,47.37L305,26.91Z" style="fill:#1a1a1a"/></g></g></svg>